<svg xmlns="http://www.w3.org/2000/svg" viewBox="0 0 198 239" fill="none" width="30" height="30">
    <path d="M108.047 197.756C110.909 211.316 125.157 222.959 126.057 223.489C126.958 224.019 100.263 224.291 100.263 224.291C100.263 224.291 92.4165 205.542 95.8081 197.279C96.1224 196.512 108.047 197.756 108.047 197.756Z" fill="#A08BE8"/>
    <path d="M101.381 222.458L124.8 222.573C124.8 222.573 130.243 226.227 131.689 228.863C132.795 230.879 132.718 235.401 132.622 237.42C132.595 237.982 132.129 238.421 131.567 238.421L108.98 238.378C108.255 238.376 107.669 237.787 107.677 237.06C107.701 234.559 107.272 229.236 106.331 227.715C104.922 225.444 101.381 222.458 101.381 222.458Z" fill="#D0C5F3"/>
    <path d="M94.2784 195.431C89.9597 210.507 91.7261 234.408 91.9073 235.673C92.1577 237.425 92.3948 238.65 94.8858 238.65C97.987 238.65 111.305 238.65 111.305 238.65L104.312 196.403L94.2784 195.431Z" fill="#8065E0"/>
    <path d="M108.047 197.756C109.091 205.154 116.474 215.55 130.461 226.429C132.097 227.699 132.936 229.044 132.936 230.935V236.991C132.936 237.886 132.209 238.613 131.314 238.613H108.862C108.228 238.613 107.717 238.099 107.717 237.468V230.477C107.717 228.299 107.277 227.18 105.042 225.577C99.4471 221.564 95.9117 208.03 95.7972 198.405C95.6826 188.781 108.047 197.756 108.047 197.756Z" fill="#A08BE8"/>
    <path d="M132.725 229.449C132.861 229.91 132.936 230.4 132.936 230.938V236.994C132.936 237.888 132.209 238.615 131.313 238.615H108.86C108.225 238.615 107.714 238.101 107.714 237.47V230.48C107.714 230.107 107.701 229.766 107.666 229.449H132.725Z" fill="#D0C5F3"/>
    <path d="M83.7334 195.431C88.0521 210.507 86.2857 234.408 86.1045 235.673C85.8541 237.425 85.617 238.65 83.126 238.65C80.0248 238.65 66.7065 238.65 66.7065 238.65L73.7001 196.403L83.7334 195.431Z" fill="#8065E0"/>
    <path d="M69.9621 197.756C68.9178 205.154 61.5353 215.55 47.5483 226.429C45.9125 227.699 45.0732 229.044 45.0732 230.935V236.991C45.0732 237.886 45.8006 238.613 46.6957 238.613H69.1469C69.781 238.613 70.2925 238.099 70.2925 237.468V230.477C70.2925 228.299 70.7321 227.18 72.9673 225.577C78.5621 221.564 82.0975 208.03 82.2121 198.405C82.3266 188.781 69.9621 197.756 69.9621 197.756Z" fill="#A08BE8"/>
    <path d="M45.2837 229.449C45.1478 229.91 45.0732 230.4 45.0732 230.938V236.994C45.0732 237.888 45.8006 238.615 46.6957 238.615H69.1496C69.7836 238.615 70.2952 238.101 70.2952 237.47V230.48C70.2952 230.107 70.3085 229.766 70.3431 229.449H45.2837Z" fill="#D0C5F3"/>
    <path d="M94.812 148.27L94.8466 181.29L106.708 181.279L106.673 148.257L94.812 148.27Z" fill="url(#paint0_linear)"/>
    <path d="M106.654 166.709H94.7822V168.257H106.654V166.709Z" fill="#A08BE8"/>
    <path d="M70.4238 148.27L70.4611 181.29L82.3221 181.279L82.2848 148.257L70.4238 148.27Z" fill="url(#paint1_linear)"/>
    <path d="M82.2657 166.709H70.394V168.257H82.2657V166.709Z" fill="#A08BE8"/>
    <path d="M19.7983 171.103C11.2196 165.53 0.898514 153.391 0.0539651 137.533C-0.460224 127.906 2.45973 113.557 19.2814 99.8818L26.8664 109.203C16.6546 117.503 11.534 127.08 12.0588 136.893C12.6263 147.519 19.6438 156.67 26.3496 161.029L19.7983 171.103Z" fill="url(#paint2_linear)"/>
    <path d="M157.17 106.753L179.978 99.3837L176.197 88.1455L153.389 95.5143L157.17 106.753Z" fill="url(#paint3_linear)"/>
    <path d="M166.233 91.3669L164.917 91.8092L168.699 103.046L170.014 102.604L166.233 91.3669Z" fill="#A08BE8"/>
    <path d="M150.131 113.117C156.269 113.117 161.246 108.143 161.246 102.007C161.246 95.8708 156.269 90.8965 150.131 90.8965C143.992 90.8965 139.016 95.8708 139.016 102.007C139.016 108.143 143.992 113.117 150.131 113.117Z" fill="url(#paint4_radial)"/>
    <path d="M27.1409 113.117C33.2795 113.117 38.2559 108.143 38.2559 102.007C38.2559 95.8708 33.2795 90.8965 27.1409 90.8965C21.0022 90.8965 16.0259 95.8708 16.0259 102.007C16.0259 108.143 21.0022 113.117 27.1409 113.117Z" fill="url(#paint5_radial)"/>
    <path d="M88.8703 156.06C122.3 156.06 149.401 128.97 149.401 95.5543C149.401 62.1381 122.3 35.049 88.8703 35.049C55.4403 35.049 28.3398 62.1381 28.3398 95.5543C28.3398 128.97 55.4403 156.06 88.8703 156.06Z" fill="url(#paint6_radial)"/>
    <path d="M139.072 95.5543C139.072 102.105 137.806 108.361 135.518 114.097C134.964 115.488 133.615 116.398 132.118 116.398H45.6225C44.1252 116.398 42.7771 115.488 42.223 114.097C39.9344 108.361 38.6689 102.105 38.6689 95.5543C38.6689 92.8752 38.8847 90.2468 39.295 87.6822C39.5748 85.9219 41.1173 84.6383 42.8997 84.6383H134.844C136.626 84.6383 138.169 85.9219 138.448 87.6822C138.856 90.2494 139.072 92.8752 139.072 95.5543Z" fill="url(#paint7_radial)"/>
    <path d="M36.6812 126.196H141.059C138.717 130.174 135.93 133.858 132.771 137.186H44.9695C41.8097 133.858 39.0256 130.174 36.6812 126.196Z" fill="url(#paint8_radial)"/>
    <path d="M39.2897 87.6849C39.5694 85.9246 41.112 84.641 42.8943 84.641H47.1144C45.332 84.641 43.7895 85.9246 43.5097 87.6849C43.1021 90.2495 42.8837 92.8779 42.8837 95.557C42.8837 100.636 43.6509 105.53 45.0603 110.148C45.5798 111.418 46.9519 112.183 48.3506 112.183H129.353C130.85 112.183 132.329 111.317 132.752 109.882C133.053 108.859 133.325 107.818 133.573 106.787C134.404 103.176 134.854 99.4211 134.854 95.5597C134.854 92.8806 134.638 90.2521 134.228 87.6876C133.948 85.9273 132.406 84.6437 130.624 84.6437H134.844C136.626 84.6437 138.169 85.9273 138.448 87.6876C138.856 90.2521 139.074 92.8806 139.074 95.5597C139.074 102.111 137.809 108.366 135.52 114.103C134.966 115.493 133.618 116.404 132.121 116.404H127.901H49.8399H45.6224H45.6171C44.1198 116.404 42.7718 115.493 42.2176 114.103C39.9291 108.366 38.6636 102.111 38.6636 95.5597C38.6636 92.8753 38.882 90.2495 39.2897 87.6849Z" fill="url(#paint9_radial)"/>
    <path d="M97.6434 112.18C97.6434 112.18 91.609 107.405 90.4288 106.521C89.2485 105.637 88.2201 105.589 87.1411 106.521C86.0621 107.453 80.0171 112.18 80.0171 112.18H97.6434Z" fill="#A08BE8"/>
    <path d="M187.681 89.6641L188.191 61.6381L176.332 61.4223L175.822 89.4483L187.681 89.6641Z" fill="#D0C5F3"/>
    <path d="M176.085 74.5513L176.06 75.9385L187.919 76.1543L187.944 74.7671L176.085 74.5513Z" fill="#A08BE8"/>
    <path d="M160.316 51.2352L173.219 61.9834C175.518 63.8982 178.936 63.5893 180.851 61.291C182.767 58.9928 182.458 55.576 180.159 53.6613L167.256 42.913C164.957 40.9983 161.539 41.3072 159.623 43.6054C157.708 45.9037 158.017 49.3178 160.316 51.2352Z" fill="#D0C5F3"/>
    <path d="M192.808 54.9902L197.449 44.6973C198.667 41.9463 197.422 38.7293 194.67 37.5123C191.918 36.2953 188.7 37.5389 187.482 40.2899L182.724 50.8437L192.808 54.9902Z" fill="#D0C5F3"/>
    <path d="M190.301 49.427L190.248 33.8586C190.227 30.8493 187.77 28.4285 184.76 28.4498C181.749 28.4712 179.327 30.9265 179.349 33.9358L179.351 45.5122L190.301 49.427Z" fill="#D0C5F3"/>
    <path d="M183.859 51.1101L180.268 35.9465C179.581 33.0171 176.647 31.2008 173.717 31.8879C170.786 32.575 168.969 35.5071 169.657 38.4365L173.312 53.8797L183.859 51.1101Z" fill="#D0C5F3"/>
    <path d="M181.837 65.4375C188.138 65.4375 193.245 60.3321 193.245 54.0342C193.245 47.7363 188.138 42.6309 181.837 42.6309C175.537 42.6309 170.429 47.7363 170.429 54.0342C170.429 60.3321 175.537 65.4375 181.837 65.4375Z" fill="url(#paint10_radial)"/>
    <path d="M174.988 88.5504L179.978 99.3838C179.978 99.3838 187.334 97.4504 187.677 89.6715C180.106 88.292 175.848 87.5171 175.848 87.5171L174.988 88.5504Z" fill="#A08BE8"/>
    <path d="M107.107 180.853H95.5468C93.6232 180.853 92.062 182.414 92.062 184.336V196.31C92.062 198.232 93.6232 199.793 95.5468 199.793H107.107C109.03 199.793 110.591 198.232 110.591 196.31V184.336C110.591 182.414 109.03 180.853 107.107 180.853Z" fill="url(#paint11_radial)"/>
    <path d="M39.3749 155.727L22.7264 153.511C19.7585 153.117 17.033 155.199 16.6387 158.166C16.2444 161.133 18.3278 163.857 21.2957 164.251L37.9443 166.467C40.9122 166.861 43.6377 164.779 44.032 161.812C44.4263 158.845 42.3402 156.121 39.3749 155.727Z" fill="#D0C5F3"/>
    <path d="M9.88232 169.868L11.4462 181.047C11.8831 184.025 14.6512 186.081 17.6298 185.644C20.6084 185.207 22.6651 182.44 22.2282 179.463L20.6244 167.998L9.88232 169.868Z" fill="#D0C5F3"/>
    <path d="M14.9736 173.237L23.3232 186.379C24.9457 188.912 28.3159 189.652 30.8522 188.027C33.3859 186.406 34.1265 183.037 32.5014 180.502L26.3231 170.712L14.9736 173.237Z" fill="#D0C5F3"/>
    <path d="M19.5239 168.379L30.6496 179.292C32.7943 181.404 36.2444 181.378 38.3571 179.234C40.4698 177.09 40.4432 173.641 38.2985 171.53L26.9677 160.411L19.5239 168.379Z" fill="#D0C5F3"/>
    <path d="M19.6732 176.23C25.9737 176.23 31.0813 171.124 31.0813 164.827C31.0813 158.529 25.9737 153.423 19.6732 153.423C13.3727 153.423 8.26514 158.529 8.26514 164.827C8.26514 171.124 13.3727 176.23 19.6732 176.23Z" fill="url(#paint12_radial)"/>
    <path d="M67.346 105.801C69.9604 105.762 72.0267 102.168 71.9612 97.7737C71.8957 93.3795 69.7232 89.8488 67.1088 89.8877C64.4944 89.9267 62.4281 93.5205 62.4936 97.9148C62.5591 102.309 64.7316 105.84 67.346 105.801Z" fill="#512BD4"/>
    <path d="M114.715 97.8777C114.78 93.4835 112.714 89.8897 110.099 89.8507C107.485 89.8118 105.313 93.3425 105.247 97.7367C105.182 102.131 107.248 105.725 109.862 105.764C112.477 105.803 114.649 102.272 114.715 97.8777Z" fill="#512BD4"/>
    <path d="M67.1889 93.8578C65.4598 95.5862 65.4598 98.3878 67.1889 100.116C68.3665 101.293 70.0422 101.666 71.5369 101.24C71.8246 100.188 71.9818 99.0136 71.9631 97.7699C71.9338 95.7753 71.4676 93.9644 70.7243 92.5769C69.4588 92.465 68.156 92.8911 67.1889 93.8578Z" fill="#8065E0"/>
    <path d="M109.92 93.5995C108.191 95.3279 108.191 98.1295 109.92 99.8578C111.105 101.043 112.792 101.413 114.294 100.976C114.55 100.026 114.697 98.9816 114.715 97.8791C114.747 95.7247 114.265 93.7646 113.458 92.3213C112.195 92.2067 110.89 92.6302 109.92 93.5995Z" fill="#8065E0"/>
    <path d="M94.6352 31.8026H82.9395L84.5886 19.7974H92.9861L94.6352 31.8026Z" fill="#D0C5F3"/>
    <path d="M88.8487 22.2048C94.983 22.2048 99.9557 17.2341 99.9557 11.1024C99.9557 4.97072 94.983 0 88.8487 0C82.7145 0 77.7417 4.97072 77.7417 11.1024C77.7417 17.2341 82.7145 22.2048 88.8487 22.2048Z" fill="url(#paint13_radial)"/>
    <path d="M99.109 39.1395C99.6365 39.1395 100.057 38.6841 99.9988 38.1595C99.3808 32.6096 94.6731 28.2927 88.9558 28.2927C83.2384 28.2927 78.5308 32.6096 77.9127 38.1595C77.8541 38.6841 78.275 39.1395 78.8025 39.1395H99.109Z" fill="url(#paint14_radial)"/>
    <path d="M98.7116 121.799H79.1831V141.319H98.7116V121.799Z" fill="#512BD4"/>
    <path d="M82.6625 134.27C82.524 134.27 82.4068 134.225 82.3109 134.132C82.215 134.039 82.167 133.927 82.167 133.796C82.167 133.663 82.215 133.551 82.3109 133.455C82.4068 133.362 82.524 133.314 82.6625 133.314C82.8037 133.314 82.921 133.362 83.0169 133.455C83.1155 133.549 83.1661 133.663 83.1661 133.796C83.1661 133.927 83.1155 134.039 83.0169 134.132C82.9236 134.225 82.8037 134.27 82.6625 134.27Z" fill="white"/>
    <path d="M88.1829 134.193H87.285L84.9192 130.465C84.8606 130.372 84.81 130.273 84.77 130.172H84.7487C84.7674 130.281 84.7754 130.513 84.7754 130.87V134.196H83.9814V129.123H84.9379L87.2238 132.763C87.3197 132.915 87.3836 133.019 87.4103 133.075H87.4236C87.3996 132.941 87.389 132.712 87.389 132.393V129.123H88.1802V134.193H88.1829Z" fill="white"/>
    <path d="M92.0512 134.193H89.2725V129.12H91.942V129.834H90.0957V131.269H91.7981V131.98H90.0957V133.479H92.0539V134.193H92.0512Z" fill="white"/>
    <path d="M95.9997 129.834H94.577V134.193H93.7564V129.834H92.3364V129.12H95.9997V129.834Z" fill="white"/>
    <path d="M82.6013 180.853H71.0414C69.1179 180.853 67.5566 182.414 67.5566 184.336V196.31C67.5566 198.232 69.1179 199.793 71.0414 199.793H82.6013C84.5249 199.793 86.0861 198.232 86.0861 196.31V184.336C86.0861 182.414 84.5249 180.853 82.6013 180.853Z" fill="url(#paint15_radial)"/>
    <path d="M35.3865 102.774C36.5188 102.822 37.5232 103.626 37.7736 104.787C41.9617 124.089 57.0863 139.49 76.3058 144.025C77.6806 144.35 78.5331 145.727 78.2081 147.101C77.883 148.475 76.5056 149.327 75.1309 149.002C54.0039 144.02 37.3793 127.088 32.7756 105.874C32.4772 104.494 33.3537 103.133 34.7338 102.832C34.9522 102.782 35.1707 102.763 35.3865 102.774Z" fill="url(#paint16_radial)"/>
    <path d="M141.019 86.894C139.887 86.846 138.882 86.0418 138.632 84.8807C134.444 65.5786 119.319 50.178 100.1 45.6427C98.725 45.3178 97.8725 43.941 98.1975 42.5668C98.5226 41.1927 99.9 40.3405 101.275 40.6654C122.402 45.648 139.026 62.58 143.63 83.7941C143.928 85.1736 143.052 86.5344 141.672 86.8354C141.453 86.886 141.232 86.9046 141.019 86.894Z" fill="url(#paint17_radial)"/>
    <path d="M14.1636 145.873L3.2373 150.485L3.77726 151.763L14.7036 147.151L14.1636 145.873Z" fill="#A08BE8"/>
    <path d="M8.42161 111.34L7.64111 112.488L17.449 119.154L18.2295 118.007L8.42161 111.34Z" fill="#A08BE8"/>
    <defs>
        <linearGradient id="paint0_linear" x1="100.76" y1="148.258" x2="100.76" y2="181.291" gradientUnits="userSpaceOnUse">
            <stop offset="0.2368" stop-color="#958FE7"/>
            <stop offset="0.4881" stop-color="#BBB7EF"/>
        </linearGradient>
        <linearGradient id="paint1_linear" x1="76.3732" y1="148.258" x2="76.3732" y2="181.291" gradientUnits="userSpaceOnUse">
            <stop offset="0.2368" stop-color="#958FE7"/>
            <stop offset="0.4881" stop-color="#BBB7EF"/>
        </linearGradient>
        <linearGradient id="paint2_linear" x1="33.4045" y1="108.032" x2="2.70024" y2="161.235" gradientUnits="userSpaceOnUse">
            <stop offset="0.1197" stop-color="#958FE7"/>
            <stop offset="0.2551" stop-color="#BBB7EF"/>
        </linearGradient>
        <linearGradient id="paint3_linear" x1="155.292" y1="101.593" x2="178.073" y2="93.2979" gradientUnits="userSpaceOnUse">
            <stop offset="0.1918" stop-color="#958FE7"/>
            <stop offset="0.4956" stop-color="#BBB7EF"/>
        </linearGradient>
        <radialGradient id="paint4_radial" cx="0" cy="0" r="1" gradientUnits="userSpaceOnUse" gradientTransform="translate(154.425 94.1063) scale(21.2351 21.2263)">
            <stop stop-color="#8065E0"/>
            <stop offset="1" stop-color="#512BD4"/>
        </radialGradient>
        <radialGradient id="paint5_radial" cx="0" cy="0" r="1" gradientUnits="userSpaceOnUse" gradientTransform="translate(21.3536 95.5191) scale(18.7521 18.7443)">
            <stop stop-color="#8065E0"/>
            <stop offset="1" stop-color="#512BD4"/>
        </radialGradient>
        <radialGradient id="paint6_radial" cx="0" cy="0" r="1" gradientUnits="userSpaceOnUse" gradientTransform="translate(104.581 58.9421) scale(82.3555 82.3213)">
            <stop offset="0.186" stop-color="#A08BE8"/>
            <stop offset="0.7272" stop-color="#8065E0"/>
        </radialGradient>
        <radialGradient id="paint7_radial" cx="0" cy="0" r="1" gradientUnits="userSpaceOnUse" gradientTransform="translate(50.1741 78.2088) scale(70.1068 70.0777)">
            <stop offset="0.0933" stop-color="#E1DFDD"/>
            <stop offset="0.6573" stop-color="white"/>
        </radialGradient>
        <radialGradient id="paint8_radial" cx="0" cy="0" r="1" gradientUnits="userSpaceOnUse" gradientTransform="translate(41.2626 130.624) scale(37.1072 37.0918)">
            <stop offset="0.4614" stop-color="#A08BE8"/>
            <stop offset="0.5268" stop-color="#A793EA"/>
            <stop offset="0.8352" stop-color="#C5B7F0"/>
            <stop offset="1" stop-color="#D0C5F3"/>
        </radialGradient>
        <radialGradient id="paint9_radial" cx="0" cy="0" r="1" gradientUnits="userSpaceOnUse" gradientTransform="translate(76.2801 104.856) scale(50.5272 50.5062)">
            <stop stop-color="#512BD4"/>
            <stop offset="0.4098" stop-color="#6645D9"/>
            <stop offset="0.7102" stop-color="#7659DD"/>
            <stop offset="0.9583" stop-color="#8065E0"/>
        </radialGradient>
        <radialGradient id="paint10_radial" cx="0" cy="0" r="1" gradientUnits="userSpaceOnUse" gradientTransform="translate(181.407 46.6089) scale(22.7499 22.7404)">
            <stop stop-color="#A08BE8"/>
            <stop offset="0.9913" stop-color="#8065E0"/>
        </radialGradient>
        <radialGradient id="paint11_radial" cx="0" cy="0" r="1" gradientUnits="userSpaceOnUse" gradientTransform="translate(101.443 183.874) scale(15.3042 15.2978)">
            <stop stop-color="#8065E0"/>
            <stop offset="0.8778" stop-color="#512BD4"/>
        </radialGradient>
        <radialGradient id="paint12_radial" cx="0" cy="0" r="1" gradientUnits="userSpaceOnUse" gradientTransform="translate(19.2498 156.663) scale(20.1459 20.1375)">
            <stop offset="0.0841" stop-color="#A08BE8"/>
            <stop offset="1" stop-color="#8065E0"/>
        </radialGradient>
        <radialGradient id="paint13_radial" cx="0" cy="0" r="1" gradientUnits="userSpaceOnUse" gradientTransform="translate(89.4141 4.72467) scale(24.2612 24.2511)">
            <stop offset="0.1717" stop-color="#A08BE8"/>
            <stop offset="0.9987" stop-color="#8065E0"/>
        </radialGradient>
        <radialGradient id="paint14_radial" cx="0" cy="0" r="1" gradientUnits="userSpaceOnUse" gradientTransform="translate(89.3318 31.1299) scale(14.7038 14.6977)">
            <stop stop-color="#8065E0"/>
            <stop offset="1" stop-color="#512BD4"/>
        </radialGradient>
        <radialGradient id="paint15_radial" cx="0" cy="0" r="1" gradientUnits="userSpaceOnUse" gradientTransform="translate(75.6224 181.513) scale(16.3049 16.2981)">
            <stop stop-color="#8065E0"/>
            <stop offset="1" stop-color="#512BD4"/>
        </radialGradient>
        <radialGradient id="paint16_radial" cx="0" cy="0" r="1" gradientUnits="userSpaceOnUse" gradientTransform="translate(55.5061 125.904) rotate(-177.525) scale(22.9695 22.96)">
            <stop stop-color="#BDB9F0"/>
            <stop offset="0.5336" stop-color="#C3BCEB" stop-opacity="0.4"/>
            <stop offset="0.6108" stop-color="#CEC3E2" stop-opacity="0.3338"/>
            <stop offset="0.8606" stop-color="#EDD6C9" stop-opacity="0.1195"/>
            <stop offset="1" stop-color="#F9DDBF" stop-opacity="0"/>
        </radialGradient>
        <radialGradient id="paint17_radial" cx="0" cy="0" r="1" gradientUnits="userSpaceOnUse" gradientTransform="translate(120.9 63.758) rotate(2.47484) scale(22.9695 22.96)">
            <stop stop-color="#BDB9F0"/>
            <stop offset="0.5266" stop-color="#C3BCEB" stop-opacity="0.7"/>
            <stop offset="0.605" stop-color="#CEC3E2" stop-opacity="0.5841"/>
            <stop offset="0.8586" stop-color="#EDD6C9" stop-opacity="0.2092"/>
            <stop offset="1" stop-color="#F9DDBF" stop-opacity="0"/>
        </radialGradient>
    </defs>
</svg>
